<svg width="100%" viewBox="0 0 680 820" xmlns="http://www.w3.org/2000/svg" style="background-color: white;">
<defs>
  <marker id="arrow-black" viewBox="0 0 10 10" refX="10" refY="5" markerWidth="6" markerHeight="6" orient="auto-start-reverse">
    <path d="M 0 0 L 10 5 L 0 10 Z" fill="black" stroke="none" />
  </marker>
</defs>

<g stroke="black" stroke-width="1.5" fill="none">
  <circle cx="90" cy="58" r="10" /> 
  <line x1="90" y1="68" x2="90" y2="93" /> 
  <line x1="70" y1="78" x2="110" y2="78" /> 
  <line x1="90" y1="93" x2="75" y2="113" /> 
  <line x1="90" y1="93" x2="105" y2="113" /> 
</g>
<text x="90" y="132" text-anchor="middle" font-family="Liberation Sans" font-size="14" font-weight="bold" fill="black" text-decoration="underline">:Acteur</text>

<rect x="430" y="42" width="160" height="40" rx="4" fill="white" stroke="black" stroke-width="1.5"/>
<text x="510" y="68" text-anchor="middle" font-family="Liberation Sans" font-size="14" font-weight="bold" fill="black" text-decoration="underline">Système</text>

<g stroke="#aaaaaa" stroke-width="1" stroke-dasharray="5 5">
  <line x1="90" y1="140" x2="90" y2="790" />
  <line x1="510" y1="82" x2="510" y2="790" />
</g>

<rect x="504" y="162" width="12" height="600" fill="white" stroke="black" stroke-width="1.2"/>

<g font-family="Liberation Sans" font-size="12" fill="black">
  
  <line x1="90" y1="166" x2="503" y2="166" stroke="black" stroke-width="1.2" marker-end="url(#arrow-black)"/>
  <text x="296" y="158" text-anchor="middle">lancerJeu()</text>

  <path d="M516 186 L550 186 L550 206 L516 206" fill="none" stroke="black" stroke-width="1" marker-end="url(#arrow-black)"/>
  <text x="555" y="200" text-anchor="start">afficherJeu()</text>

  <rect x="110" y="224" width="550" height="490" rx="4" fill="none" stroke="black" stroke-width="1" />
  <rect x="110" y="224" width="45" height="20" rx="2" fill="white" stroke="black" stroke-width="1"/>
  <text x="132" y="238" text-anchor="middle" font-weight="bold">loop</text>
  <text x="388" y="242" text-anchor="middle" font-style="italic">[!finPartie]</text>

  <path d="M516 258 L550 258 L550 278 L516 278" fill="none" stroke="black" stroke-width="1" marker-end="url(#arrow-black)"/>
  <text x="555" y="272" text-anchor="start">lancerDes()</text>
  
  <line x1="503" y1="296" x2="90" y2="296" stroke="black" stroke-width="1" stroke-dasharray="4 2" marker-end="url(#arrow-black)"/>
  <text x="296" y="289" text-anchor="middle">"Résultat des dés : n"</text>

  <path d="M516 325 L550 325 L550 345 L516 345" fill="none" stroke="black" stroke-width="1" marker-end="url(#arrow-black)"/>
  <text x="555" y="339" text-anchor="start">deplacerJoueur(joueur)</text>

  <path d="M516 365 L550 365 L550 385 L516 385" fill="none" stroke="black" stroke-width="1" marker-end="url(#arrow-black)"/>
  <text x="555" y="379" text-anchor="start">afficherCase()</text>
  
  <line x1="503" y1="400" x2="90" y2="400" stroke="black" stroke-width="1" stroke-dasharray="4 2" marker-end="url(#arrow-black)"/>
  <text x="296" y="393" text-anchor="middle">"Case n° x [type de case]"</text>

  <path d="M516 425 L550 425 L550 445 L516 445" fill="none" stroke="black" stroke-width="1" marker-end="url(#arrow-black)"/>
  <text x="555" y="439" text-anchor="start">declencherAction()</text>

  <path d="M516 465 L550 465 L550 485 L516 485" fill="none" stroke="black" stroke-width="1" marker-end="url(#arrow-black)"/>
  <text x="555" y="479" text-anchor="start">afficherJoueur()</text>
  
  <line x1="503" y1="505" x2="90" y2="505" stroke="black" stroke-width="1" stroke-dasharray="4 2" marker-end="url(#arrow-black)"/>
  <text x="296" y="498" text-anchor="middle">"Position : x | Vies : n"</text>

  <path d="M516 525 L550 525 L550 545 L516 545" fill="none" stroke="black" stroke-width="1" marker-end="url(#arrow-black)"/>
  <text x="555" y="539" text-anchor="start">verifierFinPartie()</text>
  
  <line x1="503" y1="560" x2="90" y2="560" stroke="black" stroke-width="1" stroke-dasharray="4 2" marker-end="url(#arrow-black)"/>
  <text x="296" y="553" text-anchor="middle">finPartie : boolean</text>

  <rect x="120" y="575" width="525" height="120" rx="4" fill="none" stroke="black" stroke-width="1" />
  <rect x="120" y="575" width="35" height="20" rx="2" fill="white" stroke="black" stroke-width="1"/>
  <text x="137" y="589" text-anchor="middle" font-weight="bold">alt</text>

  <text x="388" y="594" text-anchor="middle" font-style="italic">[finPartie]</text>
  <line x1="503" y1="610" x2="90" y2="610" stroke="black" stroke-width="1" stroke-dasharray="4 2" marker-end="url(#arrow-black)"/>
  <text x="296" y="603" text-anchor="middle">"Fin de la partie !"</text>

  <line x1="120" y1="635" x2="645" y2="635" stroke="#999" stroke-width="1" stroke-dasharray="8 4"/>

  <text x="388" y="652" text-anchor="middle" font-style="italic">[!finPartie]</text>
  <line x1="503" y1="670" x2="90" y2="670" stroke="black" stroke-width="1" stroke-dasharray="4 2" marker-end="url(#arrow-black)"/>
  <text x="296" y="663" text-anchor="middle">"Déplacement effectué"</text>

  <line x1="503" y1="750" x2="90" y2="750" stroke="black" stroke-width="1" stroke-dasharray="4 2" marker-end="url(#arrow-black)"/>
</g>
</svg>
