<svg width="100%" viewBox="0 0 680 470" xmlns="http://www.w3.org/2000/svg" style="background-color: white;">
<defs>
  <marker id="arrow-black" viewBox="0 0 10 10" refX="10" refY="5" markerWidth="6" markerHeight="6" orient="auto-start-reverse">
  <path d="M 0 0 L 10 5 L 0 10 Z" fill="black" stroke="none" />
</marker>
</defs>

<text x="340" y="28" text-anchor="middle" font-family="Liberation Sans" font-size="16" font-weight="bold" fill="black">Case Mine</text>

<g font-family="Liberation Sans" font-size="14" font-weight="bold">
  <rect x="40" y="46" width="100" height="40" fill="white" stroke="black" stroke-width="1.5"/>
  <text x="90" y="71" text-anchor="middle" fill="black" text-decoration="underline">:Jeu</text>
  
  <rect x="215" y="46" width="110" height="40" fill="white" stroke="black" stroke-width="1.5"/>
  <text x="270" y="71" text-anchor="middle" fill="black" text-decoration="underline">:CaseMine</text>
  
  <rect x="400" y="46" width="120" height="40" fill="white" stroke="black" stroke-width="1.5"/>
  <text x="460" y="71" text-anchor="middle" fill="black" text-decoration="underline">joueurActuel</text>
</g>

<g stroke="#aaaaaa" stroke-width="1" stroke-dasharray="5 5">
  <line x1="90" y1="86" x2="90" y2="440" />
  <line x1="270" y1="86" x2="270" y2="440" />
  <line x1="460" y1="86" x2="460" y2="440" />
</g>

<g fill="white" stroke="black" stroke-width="1.5">
  <rect x="84" y="150" width="12" height="170" />
  <rect x="264" y="150" width="12" height="170" />
  <rect x="454" y="220" width="12" height="45" />
</g>

<g font-family="Liberation Sans" font-size="12" font-weight="500" fill="black">
  <line x1="96" y1="150" x2="263" y2="150" stroke="black" stroke-width="1.2" marker-end="url(#arrow-black)"/>
  <text x="180" y="143" text-anchor="middle">declencherAction(joueurActuel, joueurEnnemi)</text>

  <line x1="276" y1="220" x2="453" y2="220" stroke="black" stroke-width="1.2" marker-end="url(#arrow-black)"/>
  <text x="365" y="213" text-anchor="middle">modifierVie(-2)</text>

  <line x1="453" y1="265" x2="276" y2="265" stroke="black" stroke-width="1" stroke-dasharray="4 2" marker-end="url(#arrow-black)"/>

  <line x1="264" y1="320" x2="96" y2="320" stroke="black" stroke-width="1" stroke-dasharray="4 2" marker-end="url(#arrow-black)"/>
</g>

</svg>
