<svg width="100%" viewBox="0 0 680 510" xmlns="http://www.w3.org/2000/svg" style="background-color: white;">
<defs>
  <marker id="arrow-black" viewBox="0 0 10 10" refX="10" refY="5" markerWidth="6" markerHeight="6" orient="auto-start-reverse">
    <path d="M 0 0 L 10 5 L 0 10 Z" fill="black" stroke="none" />
  </marker>
</defs>

<text x="340" y="28" text-anchor="middle" font-family="Liberation Sans" font-size="16" font-weight="bold" fill="black">Case Roulette Russe</text>

<g font-family="Liberation Sans" font-size="14" font-weight="bold">
  <rect x="30" y="46" width="100" height="40" fill="white" stroke="black" stroke-width="1.5"/>
  <text x="80" y="71" text-anchor="middle" fill="black" text-decoration="underline">:Jeu</text>
  
  <rect x="185" y="46" width="148" height="40" fill="white" stroke="black" stroke-width="1.5"/>
  <text x="259" y="71" text-anchor="middle" fill="black" text-decoration="underline">:CaseRouletteRusse</text>
  
  <rect x="390" y="46" width="80" height="40" fill="white" stroke="black" stroke-width="1.5"/>
  <text x="430" y="71" text-anchor="middle" fill="black" text-decoration="underline">:Random</text>
  
  <rect x="530" y="46" width="120" height="40" fill="white" stroke="black" stroke-width="1.5"/>
  <text x="590" y="71" text-anchor="middle" fill="black" text-decoration="underline">joueurActuel</text>
</g>

<g stroke="#aaaaaa" stroke-width="1" stroke-dasharray="5 5">
  <line x1="80" y1="86" x2="80" y2="480" />
  <line x1="259" y1="86" x2="259" y2="480" />
  <line x1="430" y1="86" x2="430" y2="480" />
  <line x1="590" y1="86" x2="590" y2="480" />
</g>

<g fill="white" stroke="black" stroke-width="1.5">
  <rect x="74" y="150" width="12" height="240" />
  <rect x="253" y="150" width="12" height="240" />
  <rect x="424" y="220" width="12" height="40" />
  <rect x="584" y="310" width="12" height="42" />
</g>

<g font-family="Liberation Sans" font-size="12" font-weight="500" fill="black">
  <line x1="86" y1="150" x2="252" y2="150" stroke="black" stroke-width="1.2" marker-end="url(#arrow-black)"/>
  <text x="170" y="143" text-anchor="middle">declencherAction(joueurActuel, joueurEnnemi)</text>

  <line x1="265" y1="220" x2="423" y2="220" stroke="black" stroke-width="1.2" marker-end="url(#arrow-black)"/>
  <text x="344" y="213" text-anchor="middle">nextInt(30)</text>

  <line x1="423" y1="260" x2="265" y2="260" stroke="black" stroke-width="1" stroke-dasharray="4 2" marker-end="url(#arrow-black)"/>
  <text x="344" y="253" text-anchor="middle">caseArrivee (1..30)</text>

  <line x1="265" y1="310" x2="583" y2="310" stroke="black" stroke-width="1.2" marker-end="url(#arrow-black)"/>
  <text x="424" y="303" text-anchor="middle">setPositionPlateau(caseArrivee)</text>

  <line x1="583" y1="352" x2="265" y2="352" stroke="black" stroke-width="1" stroke-dasharray="4 2" marker-end="url(#arrow-black)"/>

  <line x1="253" y1="390" x2="86" y2="390" stroke="black" stroke-width="1" stroke-dasharray="4 2" marker-end="url(#arrow-black)"/>
</g>

</svg>
